<svg width="30" height="30" viewBox="0 0 30 30" fill="none" xmlns="http://www.w3.org/2000/svg">
<path d="M3 7.5C3 5.84314 4.34314 4.5 6 4.5H16.5C18.1569 4.5 19.5 5.84314 19.5 7.5V13.5C19.5 15.1569 18.1569 16.5 16.5 16.5H13.5L9 21V16.5H6C4.34314 16.5 3 15.1569 3 13.5V7.5Z" fill="white"/>
<path d="M22.5 10.5V13.5C22.5 16.8137 19.8136 19.5 16.5 19.5H14.7426L12.0926 22.15C12.5123 22.3734 12.9914 22.5 13.5 22.5H16.5L21 27V22.5H24C25.6569 22.5 27 21.1569 27 19.5V13.5C27 11.8431 25.6569 10.5 24 10.5H22.5Z" fill="white"/>
</svg>
