<svg width="30" height="30" viewBox="0 0 30 30" fill="none" xmlns="http://www.w3.org/2000/svg">
<path d="M21.3639 22.864C17.8491 26.3787 12.1506 26.3787 8.63592 22.864C6.87856 21.1066 5.99988 18.8034 5.99988 16.5C5.99988 14.1967 6.87855 11.8934 8.63592 10.1361C8.63592 13.5 9.00001 16.5 13.5 18C13.5 15 15 6 17.25 4.5C18.75 7.5 19.6065 8.37871 21.3638 10.1361C23.1212 11.8934 23.9999 14.1967 23.9999 16.5C23.9999 18.8034 23.1212 21.1066 21.3639 22.864Z" fill="white" stroke="white" stroke-width="2" stroke-linecap="round" stroke-linejoin="round"/>
<path d="M11.818 22.682C13.5754 24.4394 16.4245 24.4394 18.1819 22.682C19.0606 21.8033 19.5 20.6517 19.5 19.5C19.5 18.3483 19.0606 17.1968 18.1819 16.3181C17.3032 15.4394 16.875 15 16.125 13.5C15 14.25 14.2501 18.75 14.2501 20.25C11.818 20.25 10.5 19.5 10.5 19.5C10.5 20.6517 10.9393 21.8033 11.818 22.682Z" fill="black"/>
</svg>
