<svg width="30" height="30" viewBox="0 0 30 30" fill="none" xmlns="http://www.w3.org/2000/svg">
<path fill-rule="evenodd" clip-rule="evenodd" d="M27 15C27 21.6275 21.6275 27 15 27C8.37258 27 3 21.6275 3 15C3 8.37258 8.37258 3 15 3C21.6275 3 27 8.37258 27 15ZM18 10.5C18 12.1569 16.6569 13.5 15 13.5C13.3431 13.5 12 12.1569 12 10.5C12 8.84314 13.3431 7.5 15 7.5C16.6569 7.5 18 8.84314 18 10.5ZM14.9999 16.5C11.9736 16.5 9.36591 18.2925 8.18061 20.8736C9.83105 22.788 12.274 24 15 24C17.726 24 20.1688 22.7882 21.8193 20.8737C20.634 18.2925 18.0263 16.5 14.9999 16.5Z" fill="white"/>
</svg>
